<svg width="161" height="157" viewBox="0 0 161 157" fill="none" xmlns="http://www.w3.org/2000/svg">
<path d="M88.8426 40.7324C91.8187 25.839 106.319 16.106 121.23 18.9932L159.388 26.3817L151.872 63.994C148.896 78.8874 134.396 88.6203 119.485 85.7332L81.3268 78.3447L88.8426 40.7324Z" fill="#0972E4" stroke="white"/>
<path d="M43.0787 70.9245C28.1781 67.9849 18.5273 53.5317 21.5231 38.6422L29.0802 1.08263L67.2547 8.61359C82.1554 11.5531 91.8062 26.0064 88.8104 40.8958L81.2532 78.4555L43.0787 70.9245Z" fill="#0972E4" stroke="white"/>
<path d="M118.215 85.9261C133.162 88.6174 143.056 102.909 140.313 117.847L133.393 155.525L95.0948 148.629C80.1473 145.938 70.2538 131.647 72.9971 116.709L79.9163 79.0304L118.215 85.9261Z" fill="#0972E4" stroke="white"/>
<path d="M10.2329 91.2598C13.8593 76.5112 28.7607 67.4725 43.516 71.0711L81.3372 80.2952L72.194 117.48C68.5675 132.229 53.6662 141.268 38.9108 137.669L1.08965 128.445L10.2329 91.2598Z" fill="#0972E4" stroke="white"/>
<path d="M83.9385 66.3062L85.5094 78.9233L97.9943 81.3282L86.4802 86.721L88.0511 99.3381L79.3641 90.054L67.8499 95.4469L73.9952 84.3161L65.3082 75.032L77.7932 77.4369L83.9385 66.3062Z" fill="white"/>
</svg>
